<svg height="35px" viewBox="0 0 44 44" version="1.1" xmlns="http://www.w3.org/2000/svg" xmlns:xlink="http://www.w3.org/1999/xlink" xml:space="preserve" xmlns:serif="http://www.serif.com/" style="fill-rule:evenodd;clip-rule:evenodd;stroke-linecap:round;stroke-linejoin:round;stroke-miterlimit:1.5;">
    <rect id="icon-home" x="0" y="0" width="44" height="44" style="fill:none;"/>
    <clipPath id="_clip1">
        <rect id="icon-home1" serif:id="icon-home" x="0" y="0" width="44" height="44"/>
    </clipPath>
    <g clip-path="url(#_clip1)">
        <path d="M17.546,38.098c0,0.385 -0.153,0.753 -0.424,1.025c-0.272,0.272 -0.641,0.425 -1.025,0.425c-1.981,0 -5.513,0 -7.494,0c-0.384,0 -0.753,-0.153 -1.025,-0.425c-0.271,-0.272 -0.424,-0.64 -0.424,-1.025c0,-4.25 0,-16.647 0,-20.874c0,-0.901 0.42,-1.751 1.137,-2.299c2.576,-1.967 8.872,-6.777 11.953,-9.131c1.037,-0.792 2.475,-0.792 3.512,0c3.081,2.354 9.377,7.164 11.953,9.131c0.717,0.548 1.137,1.398 1.137,2.299c0,4.227 0,16.624 0,20.874c0,0.385 -0.153,0.753 -0.424,1.025c-0.272,0.272 -0.641,0.425 -1.025,0.425c-1.981,0 -5.513,0 -7.494,0c-0.384,0 -0.753,-0.153 -1.025,-0.425c-0.271,-0.272 -0.424,-0.64 -0.424,-1.025c0,-3.088 0,-10.288 0,-13.376c0,-0.384 -0.153,-0.753 -0.425,-1.025c-0.272,-0.272 -0.64,-0.424 -1.025,-0.424c-1.656,0 -4.352,0 -6.008,0c-0.385,0 -0.753,0.152 -1.025,0.424c-0.272,0.272 -0.425,0.641 -0.425,1.025c0,3.088 0,10.288 0,13.376Z" style="fill:none;stroke:#000;stroke-width:2px;"/>
    </g>
</svg>
