<?xml version="1.0" encoding="UTF-8" standalone="no"?><!DOCTYPE svg PUBLIC "-//W3C//DTD SVG 1.1//EN" "http://www.w3.org/Graphics/SVG/1.1/DTD/svg11.dtd"><svg width="100%" height="100%" viewBox="0 0 786 172" version="1.1" xmlns="http://www.w3.org/2000/svg" xmlns:xlink="http://www.w3.org/1999/xlink" xml:space="preserve" xmlns:serif="http://www.serif.com/" style="fill-rule:evenodd;clip-rule:evenodd;stroke-linejoin:round;stroke-miterlimit:1.41421;"><g id="logo-type"><path d="M772.37,66.436c4.423,0.21 7.703,1.152 9.84,2.826c2.138,1.674 3.13,4.117 2.978,7.327c-0.199,4.209 -1.962,8.201 -5.287,11.976c-3.172,3.568 -7.808,6.351 -13.909,8.35c-3.339,1.058 -6.114,1.534 -8.326,1.429c-2.996,-0.142 -4.432,-1.533 -4.307,-4.172c0.085,-1.784 1.005,-3.099 2.761,-3.945c0.438,-0.194 2.893,-0.685 7.363,-1.474c2.667,-0.446 5.151,-1.58 7.454,-3.401c2.004,-1.55 3.052,-3.287 3.143,-5.214c0.071,-1.498 -0.305,-2.624 -1.127,-3.378c-0.822,-0.754 -2.089,-1.171 -3.802,-1.253c-4.137,-0.196 -8.783,1.265 -13.935,4.381c-5.958,3.507 -9.06,7.865 -9.307,13.073c-0.176,3.71 1.495,8.436 5.012,14.18c3.922,6.264 5.783,11.5 5.584,15.709c-0.297,6.278 -3.313,11.069 -9.047,14.372c-3.529,2.049 -7.469,2.971 -11.821,2.765c-6.849,-0.325 -11.94,-3.033 -15.274,-8.124c-2.331,-3.614 -3.384,-7.811 -3.157,-12.591c0.263,-5.565 1.912,-10.17 4.944,-13.816c1.974,-2.409 3.959,-3.566 5.957,-3.471c1.783,0.084 2.641,0.84 2.573,2.267c-0.027,0.57 -0.388,1.411 -1.084,2.522c-1.787,2.99 -2.778,6.554 -2.974,10.692c-0.165,3.495 0.943,6.515 3.325,9.059c2.11,2.245 4.592,3.435 7.446,3.571c2.782,0.131 5.002,-0.693 6.659,-2.474c1.359,-1.508 2.095,-3.475 2.21,-5.901c0.142,-2.996 -1.386,-6.965 -4.584,-11.908c-4.397,-6.786 -6.469,-12.855 -6.216,-18.205c0.338,-7.134 4.526,-13.264 12.562,-18.389c7.812,-4.92 15.928,-7.182 24.346,-6.783Zm-750.851,29.405c3.796,0 5.695,1.547 5.695,4.641c0,2.32 -1.758,4.078 -5.274,5.274c-6.046,2.179 -9.07,6.082 -9.07,11.707c0,4.5 1.758,8.015 5.274,10.546c3.023,2.11 6.855,3.164 11.496,3.164c9.281,0 17.402,-2.707 24.363,-8.121c4.359,-3.445 6.539,-7.804 6.539,-13.078c0,-3.234 -0.633,-6.152 -1.898,-8.754c-1.336,-2.672 -3.375,-6.047 -6.118,-10.125c-4.218,-6.328 -7.769,-12.093 -10.652,-17.297c-3.234,-5.765 -4.852,-11.425 -4.852,-16.98c0,-13.148 6.504,-25.453 19.512,-36.914c6.891,-5.977 14.485,-10.828 22.781,-14.555c6.891,-3.023 13.536,-4.535 19.934,-4.535c4.148,0 7.664,1.09 10.547,3.27c3.516,2.601 5.273,6.152 5.273,10.652c0,7.031 -3.797,14.625 -11.39,22.781c-7.172,7.664 -15.539,13.922 -25.102,18.774c-4.781,2.39 -8.402,3.586 -10.863,3.586c-1.617,0 -3.059,-0.668 -4.324,-2.004c-0.844,-0.914 -1.266,-1.934 -1.266,-3.059c0,-2.601 2.32,-4.711 6.961,-6.328c8.508,-3.023 16.031,-7.277 22.57,-12.762c8.438,-7.031 12.657,-13.183 12.657,-18.457c0,-2.039 -0.844,-3.691 -2.532,-4.957c-1.336,-0.984 -2.918,-1.476 -4.746,-1.476c-4.851,0 -10.933,1.863 -18.246,5.589c-9.844,4.993 -17.578,11.426 -23.203,19.301c-4.922,6.821 -7.383,13.465 -7.383,19.934c0,4.711 1.301,9.562 3.903,14.555c2.179,4.007 4.957,8.543 8.332,13.605c3.234,4.852 5.976,9.352 8.226,13.5c2.602,4.922 3.902,9.527 3.902,13.816c0,8.297 -4.746,15.645 -14.238,22.043c-8.086,5.344 -17.226,8.016 -27.422,8.016c-10.054,0 -17.929,-2.777 -23.625,-8.332c-4.289,-4.219 -6.433,-9.07 -6.433,-14.555c0,-6.117 2.039,-11.25 6.117,-15.398c2.461,-2.531 5.379,-4.43 8.754,-5.695c2.32,-0.915 4.254,-1.372 5.801,-1.372Zm554.322,0.009c-3.966,1.947 -7.736,2.836 -11.31,2.667c-2.029,-0.097 -3.874,-0.724 -5.535,-1.883c-1.417,-0.957 -2.071,-2.577 -1.963,-4.86c0.075,-1.586 0.827,-3.361 2.255,-5.327c-5.178,3.313 -11.364,9.122 -18.558,17.425c-4.184,5.14 -8.395,11.519 -12.633,19.135c-1.597,2.848 -3.473,4.221 -5.629,4.119c-2.347,-0.111 -3.467,-1.276 -3.362,-3.496c0.102,-2.156 2.215,-7.84 6.337,-17.051c6.115,-13.692 12.334,-24.234 18.659,-31.625c3.903,-4.582 7.092,-6.814 9.565,-6.697c0.824,0.039 1.573,0.329 2.247,0.869c0.794,0.674 1.169,1.486 1.124,2.437c-0.046,0.951 -0.743,2.253 -2.092,3.905c-0.269,0.305 -2.05,2.35 -5.344,6.134c-3.03,3.606 -5.394,7.213 -7.09,10.819c6.53,-6.365 14.004,-12.525 22.421,-18.482c3.025,-2.145 6.233,-4.122 9.624,-5.931c1.694,-0.873 2.763,-1.299 3.207,-1.278c0.951,0.045 1.869,0.787 2.754,2.227c0.535,0.788 0.787,1.5 0.757,2.134c-0.054,1.141 -1.333,2.638 -3.835,4.489c-6.712,4.83 -10.129,8.545 -10.253,11.145c-0.069,1.459 0.721,2.227 2.37,2.305c2.727,0.13 5.551,-0.058 12.422,-4.245c0.904,-0.542 5.553,-4.021 6.367,-4.779c8.577,-7.983 15.909,-11.831 21.997,-11.542c1.649,0.078 3.115,0.656 4.399,1.734c1.585,1.409 2.327,3.192 2.225,5.348c-0.159,3.361 -1.908,7.41 -5.247,12.145c-6.885,9.843 -16.856,16.394 -29.913,19.652l-0.081,1.712c-0.066,1.395 0.226,2.617 0.875,3.665c1.474,2.421 4.019,3.717 7.633,3.889c7.144,0.338 15.526,-4.22 25.147,-13.675c1.133,-2.794 2.564,-5.669 4.292,-8.628c5.205,-8.891 11.289,-15.626 18.253,-20.202c4.556,-2.974 8.885,-4.363 12.985,-4.169c2.57,0.122 4.674,1.019 6.312,2.691c1.402,1.477 2.061,3.103 1.977,4.878c-0.064,1.346 -0.672,3.188 -1.826,5.525c0.857,1.329 1.263,2.482 1.216,3.461c-0.06,1.286 -1.017,3.356 -2.87,6.212c-1.917,2.915 -3.88,6.808 -5.889,11.681c-2.147,5.173 -3.295,9.35 -3.446,12.533c-0.122,2.57 0.543,4.717 1.995,6.442c3.196,3.514 3.257,2.073 3.257,2.073c1.046,-4.082 3.369,-9.828 6.968,-17.238c5.109,-10.635 10.765,-20.144 16.968,-28.526c4.282,-5.87 7.522,-8.753 9.719,-8.648c1.998,0.094 2.946,1.207 2.845,3.338c-0.044,0.932 -1.386,3.204 -4.027,6.816c-4.659,6.786 -7.768,11.844 -9.327,15.174c5.87,-5.595 11.015,-9.956 15.435,-13.083c6.695,-4.688 11.141,-6.98 13.339,-6.876c1.065,0.051 1.978,0.495 2.739,1.332c0.698,0.767 1.026,1.583 0.985,2.449c-0.06,1.265 -1.323,3.274 -3.789,6.026c-3.81,4.358 -6.49,8.101 -8.039,11.231c16.322,-14.909 27.346,-22.228 33.072,-21.957c1.199,0.057 2.214,0.472 3.045,1.246c0.894,0.843 1.313,1.864 1.256,3.062c-0.088,1.865 -1.634,4.194 -4.636,6.988c-13.199,12.388 -19.996,22.743 -20.391,31.066c-0.161,3.396 0.324,5.855 1.453,7.377l2.44,3.419c0.505,0.624 0.735,1.403 0.69,2.335c-0.05,1.065 -0.53,2.043 -1.44,2.935c-1.049,1.018 -2.206,1.497 -3.471,1.437c-2.198,-0.104 -4.162,-1.599 -5.894,-4.484c-2.106,-3.436 -3.052,-7.419 -2.838,-11.946c0.287,-6.06 2.309,-12.103 6.065,-18.132c1.302,-2.14 3.439,-4.975 6.409,-8.505c-5.862,3.993 -11.899,9.58 -18.112,16.76c-4.235,4.871 -8.099,10.36 -11.591,16.468c-1.674,2.924 -3.542,4.337 -5.606,4.239c-2.264,-0.107 -3.336,-1.426 -3.217,-3.956c0.13,-2.73 2.261,-8.268 6.393,-16.615c2.361,-4.759 5.234,-9.762 8.619,-15.007c-11.802,8.25 -20.923,19.763 -27.362,34.54c-1.556,3.263 -3.482,5.997 -8.871,5.741c-4.627,-0.219 -8.08,-2.76 -10.328,-5.81c-1.845,-2.48 -2.682,-5.525 -2.511,-9.135c0.058,-1.224 0.276,-3.238 0.654,-6.041c-2.187,3.454 -4.318,6.358 -6.392,8.713c-4.082,4.591 -8.019,6.796 -11.814,6.616c-3.304,-0.156 -5.8,-1.839 -7.488,-5.046c-1.067,-2.075 -1.536,-4.489 -1.405,-7.243c0.031,-0.654 0.082,-1.313 0.153,-1.978c-3.862,3.007 -7.883,5.517 -12.062,7.529c-5.528,2.661 -10.607,3.883 -15.236,3.663c-4.756,-0.225 -8.42,-2.051 -10.99,-5.478c-1.731,-2.37 -2.503,-5.521 -2.317,-9.453c0.24,-5.078 1.611,-10.053 4.111,-14.924Zm-335.247,3.633c0.682,-0.777 3.82,-7.061 4.996,-9.766c1.079,-2.539 4.063,-8.666 8.951,-18.379c-1.714,0.445 -3.015,0.667 -3.904,0.667c-1.333,0 -2.508,-0.318 -3.524,-0.953c-1.396,-0.888 -2.095,-1.999 -2.095,-3.333c0,-1.587 0.921,-2.856 2.762,-3.809c0.508,-0.254 2.857,-0.666 7.047,-1.238c1.524,-0.254 3.746,-0.857 6.666,-1.809c2.222,-4 5.841,-9.428 10.856,-16.284c2.793,-3.809 4.73,-6.285 5.809,-7.428c1.523,-1.587 2.857,-2.381 3.999,-2.381c0.826,0 1.651,0.445 2.476,1.334c0.762,0.825 1.143,1.65 1.143,2.476c0,1.65 -1.778,4.92 -5.333,9.808c-2.349,3.174 -4.095,5.746 -5.237,7.714c7.047,-1.905 12.094,-2.857 15.141,-2.857c3.492,0 5.238,1.46 5.238,4.38c0,1.46 -0.604,2.54 -1.81,3.238c-0.635,0.381 -2.285,0.698 -4.952,0.952c-1.079,-0.063 -5.872,1.143 -14.379,3.619c-2.349,0.698 -4.666,1.428 -6.952,2.19c-4.126,6.412 -7.935,13.586 -11.427,21.522c-5.015,11.3 -7.523,19.744 -7.523,25.33c0,1.588 0.333,2.794 1,3.619c0.666,0.825 1.666,1.238 2.999,1.238c3.175,0 7.016,-2.984 11.523,-8.951c2.295,-2.959 4.386,-5.917 6.271,-8.876c2.319,-8.556 7.551,-16.984 15.697,-25.283c9.238,-9.453 17.295,-14.18 24.17,-14.18c1.862,0 3.544,0.573 5.048,1.719c1.862,1.504 2.413,4.149 2.413,6.584c0,3.796 -1.374,7.774 -4.883,13.289c-7.233,11.458 -18.119,19.372 -32.657,23.74l0,1.934c0,1.575 0.394,2.936 1.182,4.082c1.79,2.649 4.727,3.974 8.809,3.974c8.951,0 19.3,-9.875 31.045,-23.625c2.076,-2.363 3.831,-3.545 5.263,-3.545c0.788,0 1.504,0.394 2.149,1.182c0.429,0.573 0.644,1.11 0.644,1.611c0,1.036 -0.473,2.338 -1.419,3.906c-1.937,3.239 -2.96,6.942 -2.96,10.715c-0.004,0 -0.004,0.001 -0.004,0.001c0,3.422 1.222,6.32 3.666,8.695c2.165,2.095 4.644,3.142 7.437,3.142c2.724,0 4.854,-0.908 6.39,-2.723c1.257,-1.537 1.886,-3.492 1.886,-5.867c0,-2.933 -1.676,-6.738 -5.028,-11.417c-4.609,-6.425 -6.914,-12.256 -6.914,-17.494c0,-6.983 3.806,-13.163 11.418,-18.541c7.402,-5.167 15.224,-7.751 23.464,-7.751c4.33,0 7.577,0.768 9.742,2.304c2.165,1.537 3.247,3.876 3.247,7.019c0,4.12 -1.536,8.1 -4.609,11.941c-2.933,3.632 -7.332,6.565 -13.198,8.799c-3.213,1.187 -5.901,1.781 -8.066,1.781c-2.933,0 -4.4,-1.292 -4.4,-3.876c0,-1.746 0.838,-3.072 2.514,-3.98c0.419,-0.21 2.794,-0.803 7.123,-1.781c2.584,-0.559 4.959,-1.781 7.123,-3.666c1.886,-1.607 2.829,-3.352 2.829,-5.238c0,-1.466 -0.419,-2.549 -1.257,-3.247c-0.838,-0.699 -2.095,-1.048 -3.771,-1.048c-4.051,0 -8.52,1.641 -13.408,4.924c-5.657,3.701 -8.485,8.1 -8.485,13.198c0,3.632 1.85,8.171 5.552,13.618c4.12,5.936 6.18,10.964 6.18,15.084c0,6.145 -2.724,10.964 -8.171,14.456c-3.352,2.164 -7.158,3.247 -11.418,3.247c-6.704,0 -11.802,-2.409 -15.293,-7.228c-2.391,-3.347 -3.613,-7.296 -3.665,-11.846c-3.118,4.413 -9.104,10.184 -14.005,12.836c-6.087,3.294 -11.745,4.942 -16.972,4.942c-5.372,0 -9.597,-1.862 -12.676,-5.586c-1.614,-2.004 -2.601,-4.57 -2.961,-7.698c-7.325,9.688 -14.021,14.533 -20.088,14.533c-3.238,0 -5.936,-1.492 -8.094,-4.476c-1.334,-1.905 -2,-4.603 -2,-8.095c0,-1.715 0.111,-3.493 0.332,-5.335c-0.249,0.246 -0.503,0.494 -0.762,0.745c-5,4.867 -10.332,8.833 -15.998,11.899c-5.666,3.067 -10.933,4.6 -15.799,4.6c-4.999,0 -8.932,-1.733 -11.799,-5.2c-1.89,-2.347 -2.856,-5.522 -2.898,-9.527c-0.185,0.182 -0.374,0.366 -0.566,0.552c-4.523,4.403 -9.348,7.991 -14.474,10.766c-5.127,2.774 -9.891,4.161 -14.294,4.161c-4.523,0 -8.082,-1.568 -10.675,-4.704c-1.749,-2.171 -2.624,-5.127 -2.624,-8.866c0,-0.363 0.006,-0.726 0.019,-1.088c0.128,-3.819 1.01,-7.8 2.398,-11.339c2.32,-5.913 6.309,-11.752 11.968,-17.517c7.78,-7.962 14.565,-11.942 20.355,-11.942c1.568,0 2.985,0.482 4.252,1.447c1.568,1.267 2.352,2.926 2.352,4.976c0,3.197 -1.478,7.117 -4.433,11.761c-6.092,9.65 -15.259,16.314 -27.502,19.993l0,1.628c0,1.327 0.332,2.473 0.995,3.438c1.508,2.232 3.981,3.347 7.418,3.347c7.539,0 16.254,-5.79 26.145,-17.369c0.109,-0.124 0.217,-0.244 0.324,-0.361c2.318,-7.524 7.064,-14.941 14.239,-22.251c8.599,-8.799 16.098,-13.199 22.498,-13.199c1.733,0 3.299,0.533 4.699,1.6c1.733,1.4 2.6,3.233 2.6,5.499c0,3.533 -1.633,7.866 -4.899,12.999c-6.733,10.666 -16.865,18.032 -30.397,22.098l0,1.8c0,1.466 0.366,2.733 1.1,3.799c1.666,2.467 4.399,3.7 8.199,3.7c8.332,0 17.965,-6.4 28.897,-19.198Zm256.05,-81.424c-1.758,0.871 -3.426,1.872 -5.005,3.005c-2.835,2.153 -4.918,3.199 -6.25,3.136c-1.014,-0.048 -1.914,-0.504 -2.7,-1.368c-0.845,-0.929 -1.243,-1.933 -1.192,-3.011c0.112,-2.347 3.352,-5.689 9.723,-10.027c9.785,-6.654 20.353,-9.713 31.705,-9.175c8.814,0.418 15.685,3.635 20.611,9.652c4.447,5.422 6.495,11.811 6.147,19.168c-0.577,12.175 -5.757,26.262 -15.54,42.259c-11.437,18.716 -25.889,33.984 -43.355,45.804c-12.937,8.794 -24.257,12.961 -33.959,12.501c-3.805,-0.18 -6.636,-1.458 -8.494,-3.834c-1.495,-1.978 -2.192,-4.045 -2.09,-6.201c0.154,-3.234 2.592,-10.428 7.315,-21.58c7.147,-16.695 15.85,-34.047 26.109,-52.056c1.528,-2.724 7.186,-12.148 16.975,-28.273Zm-385.013,86.323c-5.459,7.365 -9.491,12.444 -12.094,15.237c-3.237,3.492 -6.031,6.158 -8.38,7.999c-2.666,1.968 -5.142,2.952 -7.428,2.952c-2.222,0 -3.936,-1.111 -5.142,-3.333c-0.952,-1.714 -1.428,-3.618 -1.428,-5.713c0,-6.92 4.126,-16.443 12.379,-28.569c7.492,-10.983 13.047,-16.474 16.665,-16.474c0.889,0 1.746,0.412 2.571,1.238c0.762,0.761 1.143,1.65 1.143,2.666c0,1.397 -1.238,3.333 -3.714,5.809c-5.269,5.206 -9.84,11.078 -13.713,17.617c-3.301,5.587 -4.951,9.237 -4.951,10.951c0,1.27 0.571,1.905 1.714,1.905c3.809,0 12.062,-8.253 24.759,-24.759c4.127,-5.333 6.634,-8.412 7.523,-9.238c1.651,-1.523 3.333,-2.285 5.047,-2.285c1.143,0 2.127,0.317 2.952,0.952c0.699,0.635 1.048,1.302 1.048,2c0,0.762 -1.524,3.968 -4.571,9.618c-6.92,12.189 -10.38,20.411 -10.38,24.664c0,1.651 0.666,2.476 2,2.476c2.285,0 5.428,-2.635 9.427,-7.904c3.809,-4.952 7.333,-11.237 10.571,-18.855c1.396,-3.301 2.634,-7.65 3.713,-13.046c1.27,-6.158 3.81,-9.237 7.619,-9.237c2.158,0 3.238,1.206 3.238,3.618c0,8.317 -4.635,19.744 -13.904,34.282c-9.65,15.173 -17.776,22.76 -24.378,22.76c-4.889,0 -7.333,-3.016 -7.333,-9.047c0,-4.952 1.683,-11.046 5.047,-18.284Zm296.765,-45.28c-4.638,7.207 -8.919,15.27 -12.843,24.189c-5.637,12.701 -8.456,22.192 -8.456,28.471c0,1.784 0.375,3.139 1.124,4.067c0.749,0.928 1.873,1.391 3.371,1.391c3.568,0 7.885,-3.353 12.951,-10.061c3.211,-4.138 6.065,-8.277 8.563,-12.415c1.355,-2.355 2.818,-3.532 4.388,-3.532c0.928,0 1.713,0.321 2.355,0.963c0.571,0.642 0.856,1.284 0.856,1.927c0,2.64 -3.461,8.526 -10.382,17.66c-8.277,10.988 -15.841,16.483 -22.691,16.483c-3.639,0 -6.671,-1.677 -9.097,-5.031c-1.499,-2.141 -2.248,-5.173 -2.248,-9.098c0,-8.633 2.497,-18.694 7.492,-30.182c1.213,-2.855 4.567,-9.74 10.061,-20.657c-1.926,0.499 -3.389,0.749 -4.388,0.749c-1.499,0 -2.819,-0.357 -3.96,-1.07c-1.57,-0.999 -2.355,-2.248 -2.355,-3.747c0,-1.783 1.035,-3.211 3.104,-4.281c0.571,-0.285 3.211,-0.749 7.92,-1.391c1.713,-0.286 4.21,-0.964 7.492,-2.034c2.498,-4.495 6.565,-10.596 12.202,-18.302c3.14,-4.281 5.316,-7.064 6.529,-8.349c1.712,-1.783 3.211,-2.675 4.495,-2.675c0.928,0 1.855,0.499 2.783,1.498c0.856,0.928 1.284,1.855 1.284,2.783c0,1.855 -1.998,5.53 -5.993,11.024c-2.641,3.568 -4.603,6.458 -5.887,8.67c7.92,-2.141 13.593,-3.211 17.018,-3.211c3.924,0 5.887,1.641 5.887,4.923c0,1.641 -0.678,2.854 -2.034,3.639c-0.714,0.428 -2.569,0.785 -5.566,1.07c-1.213,-0.071 -6.6,1.285 -16.161,4.068c-2.64,0.785 -5.245,1.605 -7.814,2.461Zm97.396,-44.995c1.858,1.042 2.759,2.133 2.705,3.275c-0.039,0.824 -1.367,3.367 -3.984,7.628c-12.865,20.682 -23.849,40.564 -32.951,59.644c-8.249,17.151 -12.468,27.724 -12.657,31.719c-0.121,2.537 1.024,3.862 3.434,3.976c4.058,0.193 9.616,-1.737 16.672,-5.788c8.816,-4.985 18.661,-13.575 29.535,-25.771c9.863,-10.973 17.794,-22.768 23.794,-35.386c4.655,-9.694 7.163,-18.378 7.527,-26.051c0.258,-5.454 -0.88,-9.591 -3.416,-12.413c-2.536,-2.821 -6.467,-4.358 -11.794,-4.61c-5.39,-0.256 -11.678,1.004 -18.865,3.777Zm118.81,88.2c-1.954,4.101 -3.012,7.84 -3.172,11.218c-0.072,1.53 0.163,2.707 0.707,3.53c0.544,0.823 1.397,1.262 2.56,1.317c2.937,0.139 6.512,-2.819 10.724,-8.876c2.365,-3.322 5.328,-8.242 8.887,-14.758c2.348,-4.244 4.044,-7.046 5.09,-8.407c0.524,-0.711 1.454,-1.556 2.788,-2.536c-0.67,-1.381 -1.419,-2.413 -2.245,-3.096c-0.826,-0.683 -1.729,-1.048 -2.708,-1.095c-4.651,-0.22 -9.892,3.61 -15.724,11.491c-2.449,3.321 -4.452,6.463 -6.011,9.425c-0.192,0.542 -0.49,1.138 -0.896,1.787Zm-463.836,2.59c4.222,-1.448 7.539,-3.076 9.952,-4.886c4.221,-3.256 7.569,-6.935 10.041,-11.037c0.905,-1.447 1.357,-2.744 1.357,-3.89c0,-1.206 -0.573,-1.809 -1.718,-1.809c-1.569,0 -3.8,1.176 -6.695,3.528c-5.187,4.162 -9.499,10.193 -12.937,18.094Zm43.831,-3.314c4.667,-1.6 8.333,-3.4 10.999,-5.4c4.667,-3.599 8.366,-7.666 11.099,-12.199c1,-1.599 1.5,-3.033 1.5,-4.299c0,-1.333 -0.633,-2 -1.9,-2c-1.733,0 -4.199,1.3 -7.399,3.9c-5.733,4.599 -10.499,11.265 -14.299,19.998Zm379.654,-1.56c4.512,-1.312 8.081,-2.859 10.707,-4.641c4.601,-3.214 8.304,-6.916 11.109,-11.105c1.023,-1.476 1.563,-2.817 1.62,-4.022c0.06,-1.268 -0.512,-1.931 -1.717,-1.988c-1.649,-0.078 -4.054,1.047 -7.215,3.376c-5.661,4.117 -10.495,10.244 -14.504,18.38Zm-301.764,-1.027c5.013,-1.719 8.952,-3.652 11.816,-5.801c5.013,-3.867 8.988,-8.235 11.924,-13.105c1.074,-1.719 1.611,-3.259 1.611,-4.619c0,-1.433 -0.68,-2.149 -2.041,-2.149c-1.862,0 -4.511,1.397 -7.949,4.19c-6.159,4.941 -11.279,12.103 -15.361,21.484Z" style="fill:#1d3d50;"/><g><clipPath id="_clip1"><path d="M74.927,157.696l-0.321,-4.814c103.886,-6.481 208.563,-9.423 312.569,-9.585c2.6,-0.003 5.2,-0.004 7.8,-0.003c97.526,0.065 195.784,2.991 293.164,8.253c7.621,0.411 15.241,0.839 22.859,1.307l0.445,0.028l-0.323,4.83c5.847,0.7 11.779,0.503 17.76,-0.534c0,0 0.831,-0.117 1.266,-0.091c2.71,0.163 4.795,2.817 4.653,5.923c-0.142,3.106 -2.457,5.496 -5.167,5.333c-0.435,-0.026 -1.251,-0.242 -1.251,-0.242c-5.913,-1.766 -11.84,-2.672 -17.777,-2.658l-0.383,5.743c-192.788,-12.028 -384.498,-12.125 -575.573,-3.125c-19.455,0.916 -38.917,1.902 -58.385,3.098l-0.435,0.027l-0.385,-5.759c-5.936,-0.019 -11.864,0.882 -17.777,2.643c0,0 -0.816,0.215 -1.251,0.24c-2.71,0.161 -5.024,-2.231 -5.164,-5.337c-0.14,-3.106 1.946,-5.758 4.656,-5.919c0.435,-0.025 1.266,0.092 1.266,0.092c5.979,1.042 11.909,1.244 17.754,0.55Z"/></clipPath><g clip-path="url(#_clip1)"><rect x="45.025" y="137" width="696" height="35" style="fill:#599cc4;"/><rect x="45.025" y="137" width="367.024" height="35" style="fill:#ea6d69;"/><rect x="301.487" y="137" width="183.076" height="35" style="fill:#fceec8;"/></g></g></g></svg>