<?xml version="1.0" encoding="UTF-8" standalone="no"?><!DOCTYPE svg PUBLIC "-//W3C//DTD SVG 1.1//EN" "http://www.w3.org/Graphics/SVG/1.1/DTD/svg11.dtd"><svg width="100%" height="100%" viewBox="0 0 827 176" version="1.1" xmlns="http://www.w3.org/2000/svg" xmlns:xlink="http://www.w3.org/1999/xlink" xml:space="preserve" xmlns:serif="http://www.serif.com/" style="fill-rule:evenodd;clip-rule:evenodd;stroke-linejoin:round;stroke-miterlimit:1.41421;"><g id="Flour-de-lis-cakes-type"><g><path d="M59.602,25.564c-3.05,4.202 -6.967,11.041 -11.751,20.515c-4.836,9.614 -8.26,17.005 -10.272,22.172c14.027,-4.332 23.792,-6.783 29.296,-7.352c2.652,-0.274 4.702,-0.218 6.149,0.168c1.646,0.366 2.569,1.511 2.768,3.434c0.425,4.111 -1.683,6.406 -6.325,6.886c-0.265,0.027 -0.796,0.082 -1.591,0.165c-1.996,0.139 -3.458,0.257 -4.387,0.353c-6.564,0.679 -17.248,3.961 -32.053,9.848c-7.96,17.644 -14.423,38.417 -19.39,62.319c-0.631,3.617 -2.007,5.536 -4.129,5.755c-1.857,0.192 -3.521,-0.675 -4.994,-2.6c-1.152,-1.422 -1.807,-2.896 -1.965,-4.421c-0.178,-1.724 1.042,-7.747 3.66,-18.07c4.341,-17.002 11.143,-35.464 20.408,-55.388c5.881,-12.469 12.387,-25.708 19.516,-39.714c-2.289,-0.098 -3.546,-1.241 -3.772,-3.43c-0.336,-3.249 2.556,-6.061 8.677,-8.436c8.499,-3.359 16.823,-6.129 24.975,-8.313c9.257,-2.498 16.34,-4.001 21.246,-4.509c7.758,-0.802 11.839,0.753 12.244,4.665c0.205,1.989 -0.522,3.706 -2.182,5.151c-0.674,0.606 -1.476,0.957 -2.404,1.053c-0.796,0.082 -1.933,0.099 -3.412,0.051c-2.289,-0.098 -4.262,-0.062 -5.92,0.11c-3.58,0.37 -9.542,1.69 -17.885,3.96c-6.005,1.559 -11.507,3.435 -16.507,5.628Z" style="fill:#1c3d51;fill-rule:nonzero;"/><path d="M80.384,104.436c-1.454,5.377 -2.514,9.709 -3.18,12.994c-0.665,3.286 -0.933,5.559 -0.803,6.819c0.172,1.657 1.053,2.404 2.645,2.239c2.387,-0.247 8.066,-3.113 11.379,-8.012c1.564,-2.373 3.808,-6.593 6.733,-12.659c1.159,-2.398 2.501,-3.676 4.026,-3.834c1.724,-0.178 2.672,0.562 2.843,2.219c0.295,2.851 -2.391,8.959 -8.057,18.324c-5.89,9.791 -14.581,15.28 -20.416,15.883c-2.52,0.261 -4.685,-0.587 -6.496,-2.545c-1.285,-1.408 -2.04,-3.206 -2.267,-5.395c-0.384,-3.713 0.212,-8.968 1.788,-15.765c1.575,-6.798 4.098,-15.134 7.566,-25.009c8.93,-25.116 18.526,-46.045 28.791,-62.788c8.192,-13.446 15.405,-20.491 21.638,-21.136c1.989,-0.206 3.692,0.389 5.11,1.784c1.484,1.387 2.328,3.076 2.534,5.065c0.96,9.283 -5.731,25.589 -20.072,48.919c-6.432,10.383 -14.322,20.916 -23.672,31.6c-2.458,2.801 -5.821,6.566 -10.09,11.297Zm5.426,-16.544c12.571,-13.229 23.361,-29.423 32.37,-48.583c4.669,-9.932 6.846,-16.423 6.531,-19.473c-0.151,-1.459 -0.856,-2.123 -2.116,-1.993c-3.647,0.377 -9.527,8.323 -17.639,23.839c-6.723,12.758 -13.105,28.161 -19.146,46.21Z" style="fill:#1c3d51;fill-rule:nonzero;"/><path d="M128.748,67.971c5.437,-0.563 8.498,2.472 9.184,9.102c0.912,8.819 -2.01,20.413 -8.767,34.783c-7.37,15.572 -15.199,23.787 -23.487,24.644c-3.846,0.398 -6.849,-1.101 -9.009,-4.496c-1.114,-1.694 -1.801,-3.801 -2.061,-6.321c-0.878,-8.487 1.086,-18.005 5.893,-28.555c4.484,-9.779 10.142,-17.601 16.974,-23.468c4.001,-3.429 7.759,-5.326 11.273,-5.689Zm-6.456,38.665c-1.795,-1.155 -2.73,-2.097 -2.805,-2.826c-0.055,-0.531 0.855,-2.099 2.73,-4.706c5.275,-7.314 7.7,-13.026 7.275,-17.137c-0.055,-0.531 -0.276,-1.044 -0.662,-1.54c-0.634,-0.94 -1.514,-1.351 -2.641,-1.235c-2.122,0.22 -5.026,2.597 -8.711,7.134c-4.756,5.853 -8.235,11.741 -10.437,17.665c-2.584,6.768 -3.657,12.273 -3.218,16.517c0.117,1.127 0.518,2.091 1.204,2.891c0.985,1.105 2.141,1.588 3.467,1.451c3.183,-0.329 6.351,-3.069 9.504,-8.22c1.386,-2.154 2.466,-4.343 3.241,-6.568c0.775,-2.225 1.126,-3.367 1.053,-3.426Z" style="fill:#1c3d51;fill-rule:nonzero;"/><path d="M162.262,113.962c-2.44,4.273 -4.631,7.716 -6.572,10.33c-3.407,4.641 -7,7.157 -10.779,7.548c-3.249,0.336 -5.92,-0.862 -8.012,-3.595c-1.472,-1.925 -2.356,-4.313 -2.651,-7.164c-0.884,-8.554 1.748,-18.744 7.896,-30.571c2.847,-5.522 5.788,-9.813 8.822,-12.875c2.359,-2.455 4.368,-3.769 6.026,-3.94c0.928,-0.096 1.831,0.213 2.709,0.926c0.738,0.661 1.145,1.356 1.221,2.085c0.13,1.26 -0.884,3.442 -3.042,6.547c-4.825,7.134 -8.378,13.599 -10.66,19.398c-2.65,6.774 -3.787,11.985 -3.41,15.632c0.096,0.928 0.385,1.618 0.868,2.071c0.482,0.453 1.121,0.638 1.917,0.556c3.382,-0.35 7.589,-5.677 12.621,-15.982c2.596,-5.361 4.705,-11.209 6.329,-17.542c0.85,-3.439 2.103,-6.55 3.759,-9.335c1.616,-2.513 3.32,-3.862 5.11,-4.047c0.995,-0.103 1.934,0.236 2.819,1.015c0.958,0.839 1.495,1.823 1.612,2.95c0.247,2.387 -1.485,7.994 -5.196,16.822c-2.52,6.091 -3.581,11.059 -3.184,14.905c0.425,4.111 1.883,7.512 4.373,10.203c0.679,0.734 2.632,1.805 5.861,3.214c1.548,0.711 1.381,1.182 1.579,3.105c0.124,1.194 -0.499,0.818 -1.437,1.786c-0.939,0.968 -1.2,4.064 -2.658,4.215c-3.316,0.343 -6.152,-0.905 -9.145,-3.276c-2.7,-2.134 -4.615,-5.42 -5.744,-9.861c-0.195,-0.583 -0.539,-2.289 -1.032,-5.12Z" style="fill:#1c3d51;fill-rule:nonzero;"/><path d="M193.531,93.036c5.778,-7.634 12.568,-15.205 20.37,-22.713c2.803,-2.703 5.822,-5.26 9.057,-7.672c1.622,-1.173 2.664,-1.783 3.128,-1.831c0.995,-0.103 2.065,0.523 3.21,1.879c0.679,0.734 1.053,1.433 1.122,2.096c0.123,1.193 -0.969,2.948 -3.276,5.264c-6.207,6.07 -9.171,10.465 -8.89,13.183c0.158,1.525 1.099,2.199 2.823,2.02c2.851,-0.295 7.514,-3.156 13.989,-8.584c1.112,-0.919 2.065,-1.419 2.861,-1.502c0.53,-0.054 1.088,0.156 1.673,0.631c0.659,0.536 1.022,1.135 1.091,1.798c0.206,1.989 -2.264,5.327 -7.408,10.014c-5.383,4.979 -10.693,7.74 -15.931,8.282c-2.122,0.219 -4.136,-0.142 -6.043,-1.084c-1.621,-0.771 -2.555,-2.35 -2.802,-4.737c-0.171,-1.657 0.33,-3.619 1.503,-5.885c-4.855,4.255 -10.363,11.258 -16.525,21.01c-3.535,5.994 -6.903,13.279 -10.104,21.853c-1.21,3.207 -2.942,4.928 -5.196,5.161c-2.454,0.254 -3.8,-0.78 -4.04,-3.1c-0.234,-2.255 1.065,-8.488 3.896,-18.699c4.194,-15.177 8.992,-27.099 14.396,-35.766c3.331,-5.371 6.29,-8.19 8.876,-8.458c0.862,-0.089 1.685,0.094 2.469,0.549c0.93,0.574 1.447,1.358 1.55,2.353c0.103,0.995 -0.416,2.456 -1.557,4.383c-0.231,0.359 -1.758,2.762 -4.582,7.209c-2.58,4.22 -4.466,8.336 -5.66,12.346Z" style="fill:#1c3d51;fill-rule:nonzero;"/><path d="M306.231,68.684c6.666,-13.932 12.965,-26.064 18.898,-36.396c5.733,-9.999 9.632,-16.299 11.699,-18.898c2.266,-2.867 4.399,-4.3 6.399,-4.3c1.067,0 2.033,0.433 2.9,1.3c0.8,0.866 1.2,1.8 1.2,2.8c0,1.533 -1.134,4.099 -3.4,7.699c-9.666,15.598 -18.531,31.43 -26.597,47.495c-9.332,18.731 -13.999,32.763 -13.999,42.095c0,3.8 0.734,6.8 2.2,8.999c0.267,0.467 1.467,1.533 3.6,3.2c0.4,0.333 0.6,1 0.6,2c0,1.333 -0.517,2.549 -1.55,3.649c-1.033,1.1 -2.183,1.65 -3.45,1.65c-1.533,0 -3.233,-0.933 -5.099,-2.8c-2.667,-2.666 -4.266,-5.732 -4.8,-9.199c-0.2,-1.466 -0.433,-4.199 -0.7,-8.199c-6.999,12.599 -13.665,18.898 -19.998,18.898c-3.666,0 -6.599,-2.066 -8.799,-6.199c-1.466,-2.733 -2.199,-5.833 -2.199,-9.299c0,-10.399 3.799,-20.864 11.398,-31.397c7.533,-10.399 15.632,-15.598 24.298,-15.598c2.4,0 4.866,0.833 7.399,2.5Zm-3.4,8.199c-1.799,-1.2 -3.366,-1.8 -4.699,-1.8c-5.599,0 -10.899,3.433 -15.898,10.299c-6.6,8.932 -9.899,17.565 -9.899,25.897c0,1 0.2,1.933 0.6,2.8c0.8,1.666 1.999,2.5 3.599,2.5c2.333,0 5.166,-2.267 8.499,-6.8c4.467,-5.999 8.599,-13.098 12.399,-21.297c1.333,-2.8 2.633,-5.6 3.9,-8.399c0,0 0.3,-0.634 0.899,-1.9l0.6,-1.3Z" style="fill:#1c3d51;fill-rule:nonzero;"/><path d="M323.133,101.812l0,1.8c0,1.466 0.367,2.733 1.1,3.799c1.667,2.467 4.4,3.7 8.199,3.7c8.333,0 17.965,-6.399 28.897,-19.198c1.933,-2.2 3.566,-3.3 4.9,-3.3c0.733,0 1.4,0.367 1.999,1.1c0.4,0.534 0.6,1.034 0.6,1.5c0,2.6 -3.199,6.999 -9.599,13.199c-4.999,4.866 -10.332,8.832 -15.998,11.899c-5.666,3.066 -10.932,4.599 -15.798,4.599c-5,0 -8.933,-1.733 -11.799,-5.199c-1.933,-2.4 -2.9,-5.666 -2.9,-9.799c0,-11.266 5.3,-22.298 15.899,-33.097c8.599,-8.799 16.098,-13.198 22.497,-13.198c1.733,0 3.3,0.533 4.7,1.599c1.733,1.4 2.6,3.233 2.6,5.5c0,3.533 -1.634,7.866 -4.9,12.998c-6.733,10.666 -16.865,18.032 -30.397,22.098Zm2.2,-7.799c4.666,-1.6 8.332,-3.4 10.999,-5.4c4.666,-3.599 8.366,-7.665 11.099,-12.198c1,-1.6 1.5,-3.033 1.5,-4.3c0,-1.333 -0.634,-2 -1.9,-2c-1.733,0 -4.2,1.3 -7.399,3.9c-5.733,4.6 -10.499,11.265 -14.299,19.998Z" style="fill:#1c3d51;fill-rule:nonzero;"/><path d="M413.744,118.678c1.799,-0.533 3.133,-0.933 3.999,-1.199c15.399,-4.733 26.431,-7.1 33.097,-7.1c4.999,0 7.499,1.867 7.499,5.6c0,1.466 -0.567,2.766 -1.7,3.899c-1.133,1.133 -2.427,1.681 -3.25,1.681c-0.666,0 -2.183,-0.081 -3.449,-0.281c-1.067,-0.2 -1.933,-0.3 -2.6,-0.3c-3.933,0 -9.099,0.9 -15.498,2.7c-2.333,0.733 -6.833,2.6 -13.499,5.599c-4.466,2 -8.132,3 -10.999,3c-2.066,0 -3.766,-0.967 -5.099,-2.9c-1.267,-1.8 -1.9,-3.699 -1.9,-5.699c0,-2.467 1.367,-6.633 4.1,-12.499c8.332,-18.131 17.264,-34.396 26.797,-48.795c13.665,-20.664 24.264,-35.829 31.796,-45.495c2.067,-2.6 4.133,-5.233 6.2,-7.899c3.266,-4.399 6.099,-6.599 8.499,-6.599c1.2,0 2.266,0.466 3.199,1.4c0.867,0.933 1.3,1.899 1.3,2.899c0,1.467 -1.133,3.733 -3.399,6.8c-0.467,0.6 -3.233,4.232 -8.299,10.898c-9.466,12.466 -16.515,21.998 -21.148,28.597c-4.633,6.6 -9.582,14.232 -14.849,22.898c-10.332,16.998 -17.264,31.263 -20.797,42.795Z" style="fill:#1c3d51;fill-rule:nonzero;"/><path d="M481.496,58.083c1.134,0 2.067,0.433 2.8,1.299c0.533,0.734 0.8,1.467 0.8,2.2c0,1.2 -0.967,3.2 -2.9,6c-6.932,10.732 -11.865,19.564 -14.798,26.497c-3.133,7.132 -5.899,14.465 -8.299,21.997c-1.067,3.333 -3.58,5.485 -5.846,5.485c-1.333,0 -1.553,-1.018 -2.353,-2.085c-0.734,-0.866 -1.1,-1.8 -1.1,-2.8c0,-1.999 2.133,-8.665 6.399,-19.997c3.333,-8.933 8.733,-18.798 16.198,-29.597c2.4,-3.533 4.2,-5.9 5.4,-7.1c1.2,-1.266 2.433,-1.899 3.699,-1.899Zm18.998,-37.096c3,0 4.5,1.533 4.5,4.599c0,2.8 -1.467,5.899 -4.4,9.299c-2.799,3.266 -5.499,4.9 -8.099,4.9c-1.266,0 -2.299,-0.467 -3.099,-1.4c-0.8,-0.867 -1.2,-1.933 -1.2,-3.2c0,-3.2 1.766,-6.599 5.299,-10.199c2.6,-2.666 4.933,-3.999 6.999,-3.999Z" style="fill:#1c3d51;fill-rule:nonzero;"/><path d="M517.953,51.583c4.132,0 7.232,0.734 9.299,2.2c2.066,1.467 3.099,3.7 3.099,6.699c0,3.933 -1.466,7.733 -4.399,11.399c-2.8,3.466 -7,6.266 -12.599,8.399c-3.066,1.133 -5.633,1.7 -7.699,1.7c-2.8,0 -4.2,-1.233 -4.2,-3.7c0,-1.666 0.8,-2.933 2.4,-3.799c0.4,-0.2 2.666,-0.767 6.799,-1.7c2.467,-0.533 4.733,-1.7 6.8,-3.5c1.799,-1.533 2.699,-3.199 2.699,-4.999c0,-1.4 -0.4,-2.433 -1.2,-3.1c-0.799,-0.666 -1.999,-1 -3.599,-1c-3.866,0 -8.133,1.567 -12.799,4.7c-5.399,3.533 -8.099,7.732 -8.099,12.599c0,3.466 1.767,7.799 5.299,12.998c3.933,5.666 5.9,10.466 5.9,14.399c0,5.866 -2.6,10.465 -7.799,13.798c-3.2,2.067 -6.833,3.1 -10.899,3.1c-6.399,0 -11.266,-2.3 -14.599,-6.899c-2.333,-3.267 -3.499,-7.133 -3.499,-11.599c0,-5.2 1.333,-9.566 3.999,-13.099c1.734,-2.333 3.533,-3.499 5.4,-3.499c1.666,0 2.5,0.666 2.5,1.999c0,0.534 -0.3,1.334 -0.9,2.4c-1.534,2.866 -2.3,6.233 -2.3,10.099c0,3.266 1.166,6.033 3.499,8.299c2.067,2 4.433,3 7.1,3c2.599,0 4.633,-0.867 6.099,-2.6c1.2,-1.466 1.8,-3.333 1.8,-5.599c0,-2.8 -1.6,-6.433 -4.8,-10.899c-4.399,-6.133 -6.599,-11.699 -6.599,-16.698c0,-6.666 3.633,-12.566 10.899,-17.698c7.066,-4.933 14.532,-7.4 22.398,-7.4Z" style="fill:#1c3d51;fill-rule:nonzero;"/><path d="M652.411,0.524c4.442,0.459 7.693,2.403 9.751,5.832c1.663,2.718 2.309,5.868 1.939,9.448c-0.664,6.432 -3.576,13.536 -8.735,21.313c-4.512,6.705 -9.877,12.584 -16.095,17.638c-4.09,3.263 -7.196,4.786 -9.318,4.567c-1.392,-0.144 -2.613,-0.974 -3.663,-2.49c-0.759,-1.083 -1.074,-2.255 -0.944,-3.515c0.24,-2.321 2.536,-4.764 6.889,-7.33c6.141,-3.655 11.162,-7.827 15.064,-12.517c5.727,-6.781 8.85,-12.69 9.37,-17.73c0.213,-2.055 -0.077,-3.626 -0.87,-4.714c-0.792,-1.087 -2.084,-1.723 -3.874,-1.907c-3.647,-0.377 -9.093,1.741 -16.338,6.354c-8.241,5.18 -17.136,12.471 -26.685,21.872c-12.157,11.946 -21.708,23.96 -28.652,36.043c-7.19,12.526 -11.265,23.431 -12.224,32.714c-0.459,4.442 0.444,8.355 2.708,11.739c2.488,3.809 5.788,5.925 9.899,6.35c7.161,0.739 16.754,-3.899 28.779,-13.916c3.598,-3.046 7.01,-6.699 12.315,-12.652c3.475,-3.796 5.83,-7.454 6.87,-9.089c0.559,-0.853 3.396,-2.565 4.722,-2.428c1.459,0.151 2.116,0.922 1.972,2.315c-0.308,2.984 -4.713,9.297 -13.214,18.94c-7.064,8.05 -14.593,14.443 -22.588,19.179c-8.991,5.304 -17.2,7.572 -24.626,6.805c-7.758,-0.801 -13.4,-4.902 -16.924,-12.302c-2.26,-4.724 -3.095,-9.936 -2.507,-15.639c1.48,-14.322 10.109,-31.692 25.888,-52.11c13.455,-17.375 27.167,-31.07 41.135,-41.087c12.08,-8.604 22.065,-12.498 29.956,-11.683Z" style="fill:#1c3d51;fill-rule:nonzero;"/><path d="M647.329,112.683c-2.585,3.62 -5.076,6.647 -7.471,9.08c-4.712,4.74 -9.123,6.898 -13.234,6.474c-3.581,-0.37 -6.191,-2.348 -7.831,-5.936c-1.034,-2.318 -1.397,-4.969 -1.089,-7.953c0.761,-7.36 3.92,-15.243 9.479,-23.648c6.192,-9.346 13.209,-16.294 21.051,-20.846c5.13,-2.955 9.917,-4.203 14.359,-3.744c2.785,0.288 5.017,1.389 6.695,3.305c1.434,1.689 2.052,3.496 1.853,5.419c-0.15,1.458 -0.923,3.422 -2.317,5.892c0.851,1.495 1.221,2.773 1.112,3.834c-0.144,1.393 -1.309,3.584 -3.494,6.575c-2.258,3.051 -4.626,7.162 -7.104,12.334c-2.644,5.49 -4.145,9.96 -4.501,13.407c-0.287,2.785 0.305,5.159 1.778,7.12c0.416,0.512 1.697,1.415 3.842,2.709c1.575,0.967 2.26,2.445 2.055,4.434c-0.13,1.26 -0.701,2.24 -1.711,2.939c-1.084,0.76 -0.26,1.089 -3.615,0.934c-3.596,-0.166 -6.499,-2.28 -8.757,-5.73c-1.854,-2.805 -2.58,-6.163 -2.176,-10.075c0.137,-1.326 0.496,-3.501 1.076,-6.524Zm15.812,-31.438c-0.645,-1.541 -1.396,-2.708 -2.252,-3.5c-0.857,-0.792 -1.815,-1.243 -2.876,-1.352c-5.039,-0.521 -10.965,3.324 -17.777,11.533c-7.505,9.076 -11.606,16.996 -12.305,23.759c-0.171,1.658 0.014,2.95 0.555,3.877c0.54,0.927 1.441,1.456 2.701,1.586c3.182,0.329 7.245,-2.669 12.187,-8.994c2.77,-3.467 6.286,-8.633 10.547,-15.497c2.807,-4.468 4.819,-7.41 6.038,-8.826c0.612,-0.741 1.673,-1.603 3.182,-2.586Z" style="fill:#1c3d51;fill-rule:nonzero;"/><path d="M703.786,95.127c-5.413,10.23 -8.407,18.13 -8.982,23.7c-0.281,2.718 0.017,5.028 0.893,6.927c1.093,2.392 2.734,3.701 4.922,3.927c4.509,0.465 7.777,-1.05 14.301,-6.475c2.209,-1.764 4.691,-7.315 5.365,-8.83c1.164,-2.615 11.434,3.572 4.526,10.766c-10.216,10.673 -19.568,15.571 -28.055,14.694c-5.106,-0.527 -8.463,-3.387 -10.071,-8.579c-1.215,-3.811 -1.613,-7.739 -1.196,-11.784c0.35,-3.381 1.662,-8.305 3.938,-14.772c-4.679,3.136 -12.114,11.214 -22.305,24.234c-3.56,5.271 -6.868,6.279 -8.791,6.081c-0.995,-0.103 -1.812,-0.623 -2.453,-1.56c-0.633,-1.004 -0.902,-1.97 -0.806,-2.898c0.274,-2.652 6.509,-12.214 15.026,-26.546c14.985,-25.057 30.401,-45.848 46.248,-62.372c8.572,-9.033 16.108,-15.492 22.608,-19.378c5.862,-3.549 10.417,-5.156 13.666,-4.821c1.459,0.151 2.69,0.881 3.694,2.191c1.308,1.609 1.853,3.475 1.634,5.597c-0.582,5.636 -4.28,12.559 -11.092,20.768c-7.104,8.447 -18.714,18.339 -34.829,29.676c-9.028,6.305 -17.07,11.17 -24.125,14.597c-1.04,1.635 -3.98,6.424 -8.822,14.368c9.213,-8.096 16.414,-13.584 21.604,-16.466c3.336,-1.8 7.775,-3.586 13.32,-5.359c3.738,-1.156 6.402,-1.651 7.994,-1.487c0.862,0.089 1.59,0.5 2.185,1.231c0.667,0.672 0.95,1.506 0.847,2.5c-0.226,2.188 -1.875,3.559 -4.948,4.113c-5.197,1.005 -10.629,2.99 -16.296,5.957Zm-6.787,-17.991c11.614,-6.038 22.7,-14.107 33.259,-24.208c5.276,-5.018 9.604,-9.932 12.982,-14.743c2.359,-3.375 3.617,-5.825 3.775,-7.35c0.157,-1.525 -0.46,-2.36 -1.852,-2.504c-3.714,-0.383 -10.701,4.658 -20.963,15.125c-8.472,8.708 -17.539,19.935 -27.201,33.68Z" style="fill:#1c3d51;fill-rule:nonzero;"/><path d="M728.526,121.405l-0.185,1.79c-0.151,1.459 0.084,2.756 0.704,3.893c1.404,2.624 3.996,4.131 7.776,4.522c8.288,0.856 18.527,-4.52 30.716,-16.128c2.149,-1.99 3.886,-2.916 5.212,-2.779c0.73,0.075 1.355,0.509 1.877,1.3c0.343,0.571 0.49,1.089 0.442,1.553c-0.267,2.586 -3.902,6.634 -10.904,12.143c-5.473,4.327 -11.185,7.724 -17.136,10.192c-5.951,2.468 -11.347,3.452 -16.187,2.952c-4.973,-0.513 -8.707,-2.641 -11.202,-6.384c-1.677,-2.585 -2.303,-5.934 -1.878,-10.045c1.157,-11.206 7.562,-21.635 19.214,-31.288c9.458,-7.869 17.369,-11.475 23.735,-10.817c1.724,0.178 3.227,0.869 4.51,2.074c1.58,1.57 2.254,3.483 2.021,5.737c-0.363,3.514 -2.433,7.657 -6.209,12.427c-7.793,9.917 -18.628,16.203 -32.506,18.858Zm2.989,-7.532c4.806,-1.112 8.638,-2.526 11.496,-4.241c5.011,-3.101 9.109,-6.766 12.293,-10.994c1.159,-1.489 1.803,-2.863 1.934,-4.123c0.136,-1.326 -0.425,-2.054 -1.685,-2.184c-1.724,-0.178 -4.311,0.861 -7.76,3.119c-6.175,3.986 -11.601,10.127 -16.278,18.423Z" style="fill:#1c3d51;fill-rule:nonzero;"/><path d="M814.944,82.883c4.111,0.425 7.119,1.473 9.024,3.144c1.904,1.671 2.703,3.998 2.395,6.982c-0.404,3.912 -2.253,7.541 -5.548,10.887c-3.141,3.16 -7.606,5.514 -13.394,7.06c-3.167,0.812 -5.778,1.112 -7.834,0.9c-2.784,-0.288 -4.05,-1.658 -3.797,-4.111c0.171,-1.658 1.097,-2.836 2.778,-3.533c0.418,-0.158 2.731,-0.489 6.938,-0.993c2.508,-0.277 4.882,-1.204 7.122,-2.782c1.948,-1.341 3.014,-2.906 3.199,-4.696c0.144,-1.393 -0.148,-2.461 -0.875,-3.207c-0.727,-0.745 -1.886,-1.2 -3.478,-1.364c-3.845,-0.397 -8.25,0.723 -13.213,3.36c-5.734,2.959 -8.851,6.859 -9.351,11.7c-0.356,3.448 0.956,7.939 3.936,13.474c3.33,6.04 4.793,11.016 4.389,14.928c-0.602,5.835 -3.661,10.144 -9.175,12.925c-3.395,1.727 -7.115,2.381 -11.16,1.963c-6.365,-0.657 -10.969,-3.444 -13.812,-8.362c-1.985,-3.489 -2.749,-7.454 -2.29,-11.897c0.534,-5.172 2.816,-8.757 5.832,-11.997c1.963,-2.143 3.873,-3.118 5.73,-2.927c1.658,0.172 2.418,0.92 2.281,2.246c-0.055,0.531 -0.435,1.296 -1.142,2.295c-1.819,2.694 -3.435,5.342 -3.832,9.188c-0.336,3.249 0.541,6.121 2.629,8.615c1.85,2.201 4.101,3.439 6.753,3.713c2.586,0.267 4.697,-0.386 6.334,-1.96c1.344,-1.335 2.133,-3.13 2.366,-5.384c0.287,-2.785 -0.931,-6.563 -3.655,-11.335c-3.746,-6.552 -5.362,-12.314 -4.849,-17.287c0.685,-6.631 4.905,-12.126 12.659,-16.485c7.536,-4.181 15.216,-5.868 23.04,-5.06Z" style="fill:#1c3d51;fill-rule:nonzero;"/></g><g><clipPath id="_clip1"><path d="M77.586,161.696l-0.321,-4.814c103.886,-6.481 208.563,-9.423 312.569,-9.585c2.6,-0.003 5.2,-0.004 7.801,-0.003c97.526,0.065 195.783,2.991 293.164,8.253c7.62,0.411 15.241,0.839 22.858,1.307l0.445,0.028l-0.323,4.83c5.847,0.7 11.779,0.503 17.761,-0.534c0,0 0.831,-0.117 1.266,-0.091c2.71,0.163 4.794,2.817 4.652,5.923c-0.142,3.106 -2.457,5.496 -5.167,5.333c-0.435,-0.026 -1.251,-0.242 -1.251,-0.242c-5.913,-1.766 -11.84,-2.672 -17.777,-2.658l-0.383,5.743c-192.788,-12.028 -384.498,-12.125 -575.573,-3.125c-19.455,0.916 -38.917,1.902 -58.385,3.098l-0.435,0.027l-0.385,-5.759c-5.936,-0.019 -11.863,0.882 -17.777,2.643c0,0 -0.816,0.215 -1.251,0.24c-2.71,0.161 -5.024,-2.231 -5.164,-5.337c-0.14,-3.106 1.947,-5.758 4.657,-5.919c0.435,-0.025 1.266,0.092 1.266,0.092c5.978,1.042 11.908,1.244 17.753,0.55Z"/></clipPath><g clip-path="url(#_clip1)"><rect x="47.684" y="141" width="696" height="35" style="fill:#599cc4;"/><rect x="47.684" y="141" width="367.024" height="35" style="fill:#ea6d69;"/><rect x="304.146" y="141" width="183.076" height="35" style="fill:#fceec8;"/></g></g></g></svg>